#N canvas 42 190 1013 556 10;
#N canvas 0 22 873 507 AUDIO-DEMO 1;
#X floatatom 312 29 5 0 0 0 - - -;
#X floatatom 351 30 5 0 0 0 - - -;
#X obj 351 49 t b f;
#X obj 18 229 cyclone/matrix~ 2 4 1;
#X obj 167 304 dac~ 1 2 3 4;
#X obj 110 116 osc~ 440;
#X obj 18 205 list append 100;
#X obj 187 118 noise~;
#X obj 19 369 vu 15 120 empty empty -1 -8 0 10 -66577 -1 0 0;
#X obj 54 369 vu 15 120 empty empty -1 -8 0 10 -66577 -1 0 0;
#X obj 89 369 vu 15 120 empty empty -1 -8 0 10 -66577 -1 0 0;
#X obj 124 369 vu 15 120 empty empty -1 -8 0 10 -66577 -1 0 0;
#X obj 110 138 *~ 0.9;
#X msg 317 182 radius \$1;
#X floatatom 317 159 5 0 0 0 - - -;
#X obj 18 172 dbap2d 2;
#X text 357 158 spatial blur;
#X text 76 173 creation argument: nr of sources;
#X text 115 205 interpolation time;
#X obj 187 140 *~ 0.5;
#X text 125 96 src0;
#X text 196 99 src1;
#X text 28 4 define speakers;
#X obj 18 144 r dbap-audio;
#X obj 312 119 s dbap-audio;
#X obj 25 69 s dbap-audio;
#X obj 18 320 env~;
#X obj 53 320 env~;
#X obj 88 320 env~;
#X obj 123 320 env~;
#X obj 18 342 - 100;
#X obj 53 342 - 100;
#X obj 88 342 - 100;
#X obj 123 342 - 100;
#X obj 312 73 pack 0 0;
#X obj 312 95 list prepend 0;
#X text 317 10 src0;
#X floatatom 424 28 5 0 0 0 - - -;
#X floatatom 463 29 5 0 0 0 - - -;
#X obj 463 48 t b f;
#X obj 424 118 s dbap-audio;
#X obj 424 72 pack 0 0;
#X text 429 9 src1;
#X obj 424 94 list prepend 1;
#X obj 317 204 s dbap-audio;
#X msg 321 348 om \$1;
#X obj 321 274 vradio 15 1 0 4 empty empty empty 0 -8 0 10 -262144
-1 -1 0;
#X msg 25 44 speakers 1 1 1 9 9 1 9 9;
#X obj 321 377 s dbap-audio;
#X text 503 27 x \, y;
#X text 426 405 but without complex hull \, uses just a box around
the rig;
#X text 423 370 om2 and 3 deal "better" with sources outside the speaker
rig (see DBAP paper section 2.3.);
#X text 320 256 SET OUTPUT MODE;
#X text 343 274 0-normalize output coords;
#X text 342 288 1-dont normalize output coords 'sharper' than om 0
;
#X text 343 302 2-use box clipping & normalize;
#X text 343 317 3-use box clipping & dont normalize;
#X obj 25 21 loadbang;
#X connect 0 0 34 0;
#X connect 1 0 2 0;
#X connect 2 0 34 0;
#X connect 2 1 34 1;
#X connect 3 0 4 0;
#X connect 3 0 26 0;
#X connect 3 1 4 1;
#X connect 3 1 27 0;
#X connect 3 2 4 2;
#X connect 3 2 28 0;
#X connect 3 3 4 3;
#X connect 3 3 29 0;
#X connect 5 0 12 0;
#X connect 6 0 3 0;
#X connect 7 0 19 0;
#X connect 12 0 3 0;
#X connect 13 0 44 0;
#X connect 14 0 13 0;
#X connect 15 0 6 0;
#X connect 19 0 3 1;
#X connect 23 0 15 0;
#X connect 26 0 30 0;
#X connect 27 0 31 0;
#X connect 28 0 32 0;
#X connect 29 0 33 0;
#X connect 30 0 8 0;
#X connect 31 0 9 0;
#X connect 32 0 10 0;
#X connect 33 0 11 0;
#X connect 34 0 35 0;
#X connect 35 0 24 0;
#X connect 37 0 41 0;
#X connect 38 0 39 0;
#X connect 39 0 41 0;
#X connect 39 1 41 1;
#X connect 41 0 43 0;
#X connect 43 0 40 0;
#X connect 45 0 48 0;
#X connect 46 0 45 0;
#X connect 47 0 25 0;
#X connect 57 0 47 0;
#X restore 756 20 pd AUDIO-DEMO;
#N canvas 0 22 450 278 (subpatch) 0;
#X array spk-gain-src-1 9 float 3;
#A 0 0.826257 0.369513 0.165251 0.229163 0.200397 0.135836 0.12904
0.123171 0.102485;
#X coords 0 1.1 9 0 200 140 1 0 0;
#X restore 20 272 graph;
#X msg 545 451 speakers 1 1 5 1 9 1 1 5 5 5 9 5 1 9 5 9 9 9;
#X floatatom 226 76 5 0 0 0 - - -;
#X floatatom 261 77 5 0 0 0 - - -;
#X obj 261 96 t b f;
#X obj 226 125 pack 0 0;
#X obj 226 147 list prepend 0;
#N canvas 0 22 450 278 (subpatch) 0;
#X array spk-gain-src-2 9 float 3;
#A 0 0.230459 0.0177095 0.00561424 0.0177095 0.00920793 0.00434298
0.00561424 0.00434298 0.0028416;
#X coords 0 1.1 9 0 200 140 1 0 0;
#X restore 233 271 graph;
#N canvas 0 22 450 300 send-to-arrays 0;
#X obj 85 26 inlet;
#X obj 85 107 unpack 0 0;
#X obj 85 58 route 0 1;
#X msg 85 85 \$2 \$1;
#X obj 81 150 tabwrite spk-gain-src-1;
#X obj 239 106 unpack 0 0;
#X msg 239 84 \$2 \$1;
#X obj 235 149 tabwrite spk-gain-src-2;
#X text 131 26 <src> <spk> <gain>;
#X connect 0 0 2 0;
#X connect 1 0 4 0;
#X connect 1 1 4 1;
#X connect 2 0 3 0;
#X connect 2 1 6 0;
#X connect 3 0 1 0;
#X connect 5 0 7 0;
#X connect 5 1 7 1;
#X connect 6 0 5 0;
#X restore 24 153 pd send-to-arrays;
#X obj 24 101 dbap2d 2;
#X text 82 101 arg: nr of sources;
#X floatatom 386 81 5 0 0 0 - - -;
#X floatatom 421 82 5 0 0 0 - - -;
#X obj 421 101 t b f;
#X obj 386 130 pack 0 0;
#X obj 386 152 list prepend 1;
#X text 231 58 ctl source 0;
#X text 386 60 ctl source 1;
#X text 547 331 9 speakers in 3x3 grid;
#X text 564 367 1 1 \, 5 1 \, 9 1;
#X text 564 387 1 5 \, 5 5 \, 9 5;
#X text 564 407 1 9 \, 5 9 \, 9 9;
#X msg 547 91 radius \$1;
#X text 620 95 spatial blur;
#X text 617 80 also called;
#X floatatom 547 73 5 0 0 0 - - -;
#X text 546 318 DEFINE SPEAKER POSITIONS;
#X text 565 346 x y \, x y \, x y;
#X text 24 171 spk gain outlet;
#X text 28 185 use with cyclone/matrix~;
#X obj 545 473 s dbap;
#X obj 547 113 s dbap;
#X obj 386 174 s dbap;
#X obj 226 169 s dbap;
#X obj 24 79 r dbap;
#X text 54 202 -> see AUDIO-DEMO;
#X msg 552 250 om \$1;
#X obj 552 176 vradio 15 1 0 4 empty empty empty 0 -8 0 10 -262144
-1 -1 0;
#X text 574 176 0-normalize output coords;
#X text 573 190 1-dont normalize output coords 'sharper' than om 0
;
#X text 574 204 2-use box clipping & normalize;
#X text 574 219 3-use box clipping & dont normalize;
#X text 543 52 SOURCE RADIUS;
#X obj 552 273 s dbap;
#X text 51 457 have a look at the paper;
#X text 58 488 DBAP - DISTANCE-BASED AMPLITUDE PANNING \, ICMC 2009
;
#X text 56 472 Trond Lossius \, Pascal Baltazar \, Theo de la Hogue
;
#X text 21 -7 DBAP2D - DISTANCE-BASED AMPLITUDE PANNING;
#X text 38 11 external by André Sier - http://www.s373.net;
#X text 38 27 Pd port by Matthias Kronlachner \, 2013;
#X text 272 42 CONTROL SOURCE POSITION;
#X obj 545 427 loadbang;
#X text 632 278 but without complex hull \, uses just a box around
the rig;
#X text 629 243 om2 and 3 deal "better" with sources outside the speaker
rig (see DBAP paper section 2.3.);
#X text 29 239 DISPLAY SPEAKER GAINS;
#X text 548 156 SET OUTPUT MODE (speaker gain computation mode);
#N canvas 746 354 444 297 MORE-PARAMETERS 0;
#X text 90 225 there are many more parameters to set...;
#X text 169 246 this has to be documented..;
#X text 172 269 but you can have a look at the .c file!;
#X text 43 50 linear;
#X text 46 65 exponential;
#X msg 22 89 falloff_mode \$1;
#X obj 22 51 vradio 15 1 0 2 empty empty empty 0 -8 0 10 -262144 -1
-1 0;
#X obj 22 111 s dbap;
#X obj 165 114 s dbap;
#X floatatom 165 60 5 0 0 0 - - -;
#X msg 165 92 falloff \$1;
#X text 22 28 just for box mode (om2 and om3);
#X text 41 6 DECAY OUTSIDE OF BOX;
#X msg 24 166 getspeakers;
#X obj 24 188 s dbap;
#X text 109 166 get saved speaker positions;
#X connect 5 0 7 0;
#X connect 6 0 5 0;
#X connect 9 0 10 0;
#X connect 10 0 8 0;
#X connect 13 0 14 0;
#X restore 370 217 pd MORE-PARAMETERS;
#N canvas 211 34 450 300 status 0;
#X obj 30 31 inlet;
#X obj 30 76 route int boxspeakers boxdim boxcenter boxcoords boxradius
boxspeakersdim;
#X connect 0 0 1 0;
#X restore 69 123 pd status;
#X connect 2 0 31 0;
#X connect 3 0 6 0;
#X connect 4 0 5 0;
#X connect 5 0 6 0;
#X connect 5 1 6 1;
#X connect 6 0 7 0;
#X connect 7 0 34 0;
#X connect 10 0 9 0;
#X connect 10 1 58 0;
#X connect 12 0 15 0;
#X connect 13 0 14 0;
#X connect 14 0 15 0;
#X connect 14 1 15 1;
#X connect 15 0 16 0;
#X connect 16 0 33 0;
#X connect 23 0 32 0;
#X connect 26 0 23 0;
#X connect 35 0 10 0;
#X connect 37 0 44 0;
#X connect 38 0 37 0;
#X connect 52 0 2 0;
